<svg width="51" height="46" viewBox="0 0 51 46" fill="none" xmlns="http://www.w3.org/2000/svg">
<g filter="url(#filter0_i_3484_4619)">
<path d="M5.1 0L10.2 10.2H17.85L12.75 0H17.85L22.95 10.2H30.6L25.5 0H30.6L35.7 10.2H43.35L38.25 0H45.9C47.3025 0 48.5035 0.4998 49.5031 1.4994C50.5027 2.499 51.0017 3.6992 51 5.1V40.8C51 42.2025 50.501 43.4035 49.5031 44.4031C48.5052 45.4027 47.3042 45.9017 45.9 45.9H5.1C3.6975 45.9 2.4973 45.401 1.4994 44.4031C0.5015 43.4052 0.0017 42.2042 0 40.8V5.1C0 3.6975 0.4998 2.4973 1.4994 1.4994C2.499 0.5015 3.6992 0.0017 5.1 0Z" fill="url(#paint0_linear_3484_4619)"/>
</g>
<path d="M26.4795 20.392L20.5178 39.0859H15L23.5462 16H27.0345L26.4795 20.392ZM31.4265 39.0859L25.4489 20.392L24.8306 16H28.3664L36.9443 39.0859H31.4265ZM31.1728 30.4921V34.4878H19.1383V30.4921H31.1728Z" fill="black" fill-opacity="0.7"/>
<defs>
<filter id="filter0_i_3484_4619" x="0" y="0" width="51" height="45.8984" filterUnits="userSpaceOnUse" color-interpolation-filters="sRGB">
<feFlood flood-opacity="0" result="BackgroundImageFix"/>
<feBlend mode="normal" in="SourceGraphic" in2="BackgroundImageFix" result="shape"/>
<feColorMatrix in="SourceAlpha" type="matrix" values="0 0 0 0 0 0 0 0 0 0 0 0 0 0 0 0 0 0 127 0" result="hardAlpha"/>
<feOffset dy="-2"/>
<feComposite in2="hardAlpha" operator="arithmetic" k2="-1" k3="1"/>
<feColorMatrix type="matrix" values="0 0 0 0 0 0 0 0 0 0 0 0 0 0 0 0 0 0 0.3 0"/>
<feBlend mode="normal" in2="shape" result="effect1_innerShadow_3484_4619"/>
</filter>
<linearGradient id="paint0_linear_3484_4619" x1="-1.00012" y1="0.450112" x2="56.3694" y2="38.9367" gradientUnits="userSpaceOnUse">
<stop stop-color="#FADE1F"/>
<stop offset="1" stop-color="#FDB324"/>
</linearGradient>
</defs>
</svg>
