<svg width="51" height="46" viewBox="0 0 51 46" fill="none" xmlns="http://www.w3.org/2000/svg">
<g filter="url(#filter0_i_3484_4616)">
<path d="M5.1 0L10.2 10.2H17.85L12.75 0H17.85L22.95 10.2H30.6L25.5 0H30.6L35.7 10.2H43.35L38.25 0H45.9C47.3025 0 48.5035 0.4998 49.5031 1.4994C50.5027 2.499 51.0017 3.6992 51 5.1V40.8C51 42.2025 50.501 43.4035 49.5031 44.4031C48.5052 45.4027 47.3042 45.9017 45.9 45.9H5.1C3.6975 45.9 2.4973 45.401 1.4994 44.4031C0.5015 43.4052 0.0017 42.2042 0 40.8V5.1C0 3.6975 0.4998 2.4973 1.4994 1.4994C2.499 0.5015 3.6992 0.0017 5.1 0Z" fill="url(#paint0_linear_3484_4616)"/>
</g>
<path d="M27.278 30.4588H21.6048L21.5745 27.1519H26.2617C27.0909 27.1519 27.7634 27.0508 28.2792 26.8486C28.805 26.6463 29.1893 26.353 29.432 25.9688C29.6747 25.5744 29.7961 25.089 29.7961 24.5125C29.7961 23.8552 29.6747 23.3243 29.432 22.9198C29.1893 22.5153 28.805 22.222 28.2792 22.04C27.7634 21.8479 27.096 21.7518 26.2769 21.7518H23.3948V40H18.4497V17.9141H26.2769C27.6016 17.9141 28.7848 18.0354 29.8264 18.2781C30.868 18.5208 31.7528 18.895 32.481 19.4006C33.2192 19.9062 33.7804 20.5383 34.1647 21.2967C34.549 22.0552 34.7411 22.9501 34.7411 23.9816C34.7411 24.8817 34.5389 25.721 34.1344 26.4997C33.74 27.2783 33.1029 27.9104 32.2231 28.3958C31.3433 28.8812 30.1652 29.1441 28.6887 29.1846L27.278 30.4588ZM27.0808 40H20.3458L22.1358 36.1774H27.0808C27.8393 36.1774 28.4561 36.0561 28.9314 35.8134C29.4067 35.5707 29.7556 35.242 29.9781 34.8274C30.2006 34.4128 30.3118 33.9476 30.3118 33.4319C30.3118 32.8251 30.2056 32.2992 29.9932 31.8543C29.791 31.4093 29.4674 31.0655 29.0224 30.8228C28.5876 30.5801 28.0061 30.4588 27.278 30.4588H22.8487L22.879 27.1519H28.2943L29.4472 28.4565C30.8528 28.4261 31.9753 28.6537 32.8147 29.1391C33.6641 29.6144 34.2759 30.2413 34.6501 31.02C35.0243 31.7987 35.2114 32.6229 35.2114 33.4925C35.2114 34.9285 34.9029 36.1319 34.2861 37.1027C33.6692 38.0634 32.754 38.7865 31.5405 39.2719C30.3371 39.7573 28.8505 40 27.0808 40Z" fill="#000A55"/>
<defs>
<filter id="filter0_i_3484_4616" x="0" y="0" width="51" height="45.8984" filterUnits="userSpaceOnUse" color-interpolation-filters="sRGB">
<feFlood flood-opacity="0" result="BackgroundImageFix"/>
<feBlend mode="normal" in="SourceGraphic" in2="BackgroundImageFix" result="shape"/>
<feColorMatrix in="SourceAlpha" type="matrix" values="0 0 0 0 0 0 0 0 0 0 0 0 0 0 0 0 0 0 127 0" result="hardAlpha"/>
<feOffset dy="-2"/>
<feComposite in2="hardAlpha" operator="arithmetic" k2="-1" k3="1"/>
<feColorMatrix type="matrix" values="0 0 0 0 0 0 0 0 0 0 0 0 0 0 0 0 0 0 0.3 0"/>
<feBlend mode="normal" in2="shape" result="effect1_innerShadow_3484_4616"/>
</filter>
<linearGradient id="paint0_linear_3484_4616" x1="-0.000124457" y1="-0.00054684" x2="50.712" y2="40.177" gradientUnits="userSpaceOnUse">
<stop stop-color="#6A8AC5"/>
<stop offset="1" stop-color="#9BB5D7"/>
</linearGradient>
</defs>
</svg>
