<svg width="51" height="46" viewBox="0 0 51 46" fill="none" xmlns="http://www.w3.org/2000/svg">
<g filter="url(#filter0_i_3484_4613)">
<path d="M5.1 0L10.2 10.2H17.85L12.75 0H17.85L22.95 10.2H30.6L25.5 0H30.6L35.7 10.2H43.35L38.25 0H45.9C47.3025 0 48.5035 0.4998 49.5031 1.4994C50.5027 2.499 51.0017 3.6992 51 5.1V40.8C51 42.2025 50.501 43.4035 49.5031 44.4031C48.5052 45.4027 47.3042 45.9017 45.9 45.9H5.1C3.6975 45.9 2.4973 45.401 1.4994 44.4031C0.5015 43.4052 0.0017 42.2042 0 40.8V5.1C0 3.6975 0.4998 2.4973 1.4994 1.4994C2.499 0.5015 3.6992 0.0017 5.1 0Z" fill="url(#paint0_linear_3484_4613)"/>
</g>
<path d="M29.3476 32.0179H34.2675C34.1865 33.5364 33.7714 34.8777 33.0223 36.0419C32.2833 37.196 31.2558 38.102 29.9398 38.76C28.6237 39.4079 27.0597 39.7319 25.2476 39.7319C23.8 39.7319 22.5042 39.4838 21.3603 38.9878C20.2164 38.4918 19.2445 37.7831 18.4448 36.8619C17.6552 35.9306 17.0478 34.8119 16.6226 33.506C16.2075 32.19 16 30.7069 16 29.0568V27.7054C16 26.0553 16.2177 24.5722 16.653 23.2562C17.0883 21.9402 17.7108 20.8165 18.5207 19.8851C19.3306 18.9538 20.3024 18.2401 21.4362 17.7441C22.57 17.248 23.8354 17 25.2324 17C27.1154 17 28.7047 17.3391 30.0005 18.0174C31.2963 18.6957 32.2985 19.627 33.0071 20.8114C33.7259 21.9958 34.1561 23.3473 34.2979 24.8658H29.3627C29.3223 24.0053 29.1603 23.2815 28.8768 22.6944C28.5934 22.0971 28.1581 21.6466 27.5709 21.3429C26.9838 21.0392 26.2043 20.8873 25.2324 20.8873C24.5238 20.8873 23.9012 21.0189 23.3647 21.2822C22.8383 21.5454 22.3979 21.9554 22.0436 22.5121C21.6994 23.0689 21.4413 23.7775 21.2692 24.638C21.0971 25.4884 21.011 26.5007 21.011 27.675V29.0568C21.011 30.221 21.087 31.2283 21.2388 32.0786C21.3907 32.929 21.6336 33.6326 21.9677 34.1894C22.3119 34.7461 22.7522 35.1612 23.2888 35.4345C23.8253 35.7078 24.4783 35.8445 25.2476 35.8445C26.1284 35.8445 26.8623 35.7078 27.4494 35.4345C28.0366 35.1511 28.4871 34.7259 28.8009 34.159C29.1147 33.5921 29.2969 32.8784 29.3476 32.0179Z" fill="black" fill-opacity="0.7"/>
<defs>
<filter id="filter0_i_3484_4613" x="0" y="0" width="51" height="45.8984" filterUnits="userSpaceOnUse" color-interpolation-filters="sRGB">
<feFlood flood-opacity="0" result="BackgroundImageFix"/>
<feBlend mode="normal" in="SourceGraphic" in2="BackgroundImageFix" result="shape"/>
<feColorMatrix in="SourceAlpha" type="matrix" values="0 0 0 0 0 0 0 0 0 0 0 0 0 0 0 0 0 0 127 0" result="hardAlpha"/>
<feOffset dy="-2"/>
<feComposite in2="hardAlpha" operator="arithmetic" k2="-1" k3="1"/>
<feColorMatrix type="matrix" values="0 0 0 0 0 0 0 0 0 0 0 0 0 0 0 0 0 0 0.3 0"/>
<feBlend mode="normal" in2="shape" result="effect1_innerShadow_3484_4613"/>
</filter>
<linearGradient id="paint0_linear_3484_4613" x1="25.4999" y1="0" x2="25.4999" y2="45.9002" gradientUnits="userSpaceOnUse">
<stop stop-color="#FFE36F"/>
<stop offset="1" stop-color="#DA7F4E"/>
</linearGradient>
</defs>
</svg>
