<svg width="51" height="46" viewBox="0 0 51 46" fill="none" xmlns="http://www.w3.org/2000/svg">
<g filter="url(#filter0_i_3484_4612)">
<path d="M5.1 0L10.2 10.2H17.85L12.75 0H17.85L22.95 10.2H30.6L25.5 0H30.6L35.7 10.2H43.35L38.25 0H45.9C47.3025 0 48.5035 0.4998 49.5031 1.4994C50.5027 2.499 51.0017 3.6992 51 5.1V40.8C51 42.2025 50.501 43.4035 49.5031 44.4031C48.5052 45.4027 47.3042 45.9017 45.9 45.9H5.1C3.6975 45.9 2.4973 45.401 1.4994 44.4031C0.5015 43.4052 0.0017 42.2042 0 40.8V5.1C0 3.6975 0.4998 2.4973 1.4994 1.4994C2.499 0.5015 3.6992 0.0017 5.1 0Z" fill="#676767"/>
</g>
<path d="M23.8113 17V40H18.6616V17H23.8113ZM32.8629 26.6992V30.6799H22.3738V26.6992H32.8629ZM33.8738 17V20.9966H22.3738V17H33.8738Z" fill="white"/>
<defs>
<filter id="filter0_i_3484_4612" x="0" y="0" width="51" height="45.8984" filterUnits="userSpaceOnUse" color-interpolation-filters="sRGB">
<feFlood flood-opacity="0" result="BackgroundImageFix"/>
<feBlend mode="normal" in="SourceGraphic" in2="BackgroundImageFix" result="shape"/>
<feColorMatrix in="SourceAlpha" type="matrix" values="0 0 0 0 0 0 0 0 0 0 0 0 0 0 0 0 0 0 127 0" result="hardAlpha"/>
<feOffset dy="-2"/>
<feComposite in2="hardAlpha" operator="arithmetic" k2="-1" k3="1"/>
<feColorMatrix type="matrix" values="0 0 0 0 0 0 0 0 0 0 0 0 0 0 0 0 0 0 0.3 0"/>
<feBlend mode="normal" in2="shape" result="effect1_innerShadow_3484_4612"/>
</filter>
</defs>
</svg>
