<svg width="51" height="46" viewBox="0 0 51 46" fill="none" xmlns="http://www.w3.org/2000/svg">
<g filter="url(#filter0_i_3484_4622)">
<path d="M5.1 0L10.2 10.2H17.85L12.75 0H17.85L22.95 10.2H30.6L25.5 0H30.6L35.7 10.2H43.35L38.25 0H45.9C47.3025 0 48.5035 0.4998 49.5031 1.4994C50.5027 2.499 51.0017 3.6992 51 5.1V40.8C51 42.2025 50.501 43.4035 49.5031 44.4031C48.5052 45.4027 47.3042 45.9017 45.9 45.9H5.1C3.6975 45.9 2.4973 45.401 1.4994 44.4031C0.5015 43.4052 0.0017 42.2042 0 40.8V5.1C0 3.6975 0.4998 2.4973 1.4994 1.4994C2.499 0.5015 3.6992 0.0017 5.1 0Z" fill="url(#paint0_linear_3484_4622)"/>
</g>
<g filter="url(#filter1_d_3484_4622)">
<path d="M29.606 34.0368C29.606 33.652 29.5488 33.3088 29.4344 33.0071C29.32 32.6951 29.112 32.4091 28.8103 32.1491C28.5087 31.889 28.0823 31.629 27.531 31.369C26.9798 31.0986 26.2569 30.8229 25.3624 30.5421C24.3431 30.2093 23.3706 29.8348 22.4449 29.4188C21.5296 28.9924 20.7132 28.4983 19.9955 27.9367C19.2778 27.375 18.711 26.7197 18.2949 25.9709C17.8893 25.222 17.6865 24.3483 17.6865 23.3498C17.6865 22.3825 17.8997 21.5088 18.3261 20.7288C18.7526 19.9487 19.3506 19.283 20.1203 18.7318C20.89 18.1701 21.7949 17.7437 22.835 17.4524C23.8751 17.1508 25.0192 17 26.2673 17C27.9315 17 29.3928 17.2964 30.6513 17.8893C31.9202 18.4717 32.9083 19.2934 33.6156 20.3543C34.3229 21.4048 34.6765 22.6269 34.6765 24.0207H29.6216C29.6216 23.407 29.4916 22.8662 29.2316 22.3981C28.982 21.9197 28.5971 21.5452 28.0771 21.2748C27.5674 21.0044 26.9278 20.8692 26.1581 20.8692C25.4092 20.8692 24.7799 20.9836 24.2703 21.2124C23.7711 21.4308 23.3914 21.7325 23.1314 22.1173C22.8818 22.5021 22.757 22.9234 22.757 23.381C22.757 23.745 22.8506 24.0779 23.0378 24.3795C23.2354 24.6707 23.5162 24.9464 23.8803 25.2064C24.2547 25.456 24.7123 25.6952 25.2532 25.9241C25.794 26.1529 26.4129 26.3713 27.1098 26.5793C28.3267 26.9642 29.4032 27.3906 30.3393 27.8586C31.2858 28.3267 32.0814 28.8571 32.7263 29.45C33.3712 30.0429 33.8548 30.7137 34.1772 31.4626C34.5101 32.2115 34.6765 33.0591 34.6765 34.0056C34.6765 35.0145 34.4789 35.909 34.0836 36.6891C33.6988 37.4692 33.1372 38.1348 32.3987 38.6861C31.6706 39.2269 30.7969 39.6378 29.7776 39.9186C28.7583 40.1994 27.6194 40.3398 26.3609 40.3398C25.2168 40.3398 24.0883 40.1942 22.9754 39.903C21.8625 39.6014 20.8536 39.1437 19.9487 38.5301C19.0542 37.9164 18.3365 37.1363 17.7957 36.1898C17.2652 35.233 17 34.0992 17 32.7887H22.0861C22.0861 33.4752 22.1849 34.0576 22.3825 34.5361C22.5801 35.0041 22.861 35.3838 23.225 35.675C23.5994 35.9662 24.0519 36.1742 24.5823 36.2991C25.1128 36.4239 25.7056 36.4863 26.3609 36.4863C27.1202 36.4863 27.7338 36.3823 28.2019 36.1742C28.6803 35.9558 29.034 35.6594 29.2628 35.285C29.4916 34.9105 29.606 34.4945 29.606 34.0368Z" fill="url(#paint1_linear_3484_4622)"/>
</g>
<defs>
<filter id="filter0_i_3484_4622" x="0" y="0" width="51" height="45.8984" filterUnits="userSpaceOnUse" color-interpolation-filters="sRGB">
<feFlood flood-opacity="0" result="BackgroundImageFix"/>
<feBlend mode="normal" in="SourceGraphic" in2="BackgroundImageFix" result="shape"/>
<feColorMatrix in="SourceAlpha" type="matrix" values="0 0 0 0 0 0 0 0 0 0 0 0 0 0 0 0 0 0 127 0" result="hardAlpha"/>
<feOffset dy="-2"/>
<feComposite in2="hardAlpha" operator="arithmetic" k2="-1" k3="1"/>
<feColorMatrix type="matrix" values="0 0 0 0 0 0 0 0 0 0 0 0 0 0 0 0 0 0 0.5 0"/>
<feBlend mode="normal" in2="shape" result="effect1_innerShadow_3484_4622"/>
</filter>
<filter id="filter1_d_3484_4622" x="17" y="17" width="18.9252" height="24.5888" filterUnits="userSpaceOnUse" color-interpolation-filters="sRGB">
<feFlood flood-opacity="0" result="BackgroundImageFix"/>
<feColorMatrix in="SourceAlpha" type="matrix" values="0 0 0 0 0 0 0 0 0 0 0 0 0 0 0 0 0 0 127 0" result="hardAlpha"/>
<feOffset dx="1.24894" dy="1.24894"/>
<feComposite in2="hardAlpha" operator="out"/>
<feColorMatrix type="matrix" values="0 0 0 0 0 0 0 0 0 0 0 0 0 0 0 0 0 0 0.25 0"/>
<feBlend mode="normal" in2="BackgroundImageFix" result="effect1_dropShadow_3484_4622"/>
<feBlend mode="normal" in="SourceGraphic" in2="effect1_dropShadow_3484_4622" result="shape"/>
</filter>
<linearGradient id="paint0_linear_3484_4622" x1="25.4999" y1="0" x2="25.4999" y2="45.9002" gradientUnits="userSpaceOnUse">
<stop stop-color="#9100FF"/>
<stop offset="1" stop-color="#570099"/>
</linearGradient>
<linearGradient id="paint1_linear_3484_4622" x1="25.8382" y1="17" x2="25.8382" y2="40.3398" gradientUnits="userSpaceOnUse">
<stop stop-color="white"/>
<stop offset="0.321824" stop-color="#C59BFF"/>
<stop offset="0.509794" stop-color="white"/>
<stop offset="0.697115" stop-color="#F4D3FF"/>
<stop offset="0.798077" stop-color="white"/>
<stop offset="1" stop-color="#D4A9FF"/>
</linearGradient>
</defs>
</svg>
